<svg height="800" viewBox="0 0 512 512" width="800" xmlns="http://www.w3.org/2000/svg"><circle cx="256" cy="256.7" fill="#eeedf2" r="215.6"/><g fill="none"><path d="m445.6 472.3h26" stroke="#1e247e" stroke-linecap="round" stroke-miterlimit="10" stroke-width="6"/><path d="m67.2 472.3h366.1" stroke="#1e247e" stroke-linecap="round" stroke-miterlimit="10" stroke-width="6"/><path d="m40.4 472.3h14.7" stroke="#1e247e" stroke-linecap="round" stroke-miterlimit="10" stroke-width="6"/><path d="m321.8 111.3-8.3 2.4" stroke="#fff" stroke-linecap="round" stroke-miterlimit="10" stroke-width="7"/><path d="m312.9 99.2-6.8 7.1" stroke="#fff" stroke-linecap="round" stroke-miterlimit="10" stroke-width="7"/><path d="m297.5 100.3 1.5-9.2" stroke="#fff" stroke-linecap="round" stroke-miterlimit="10" stroke-width="7"/></g><path d="m422.8 462h-76.6c-11.8 0-21.3-9.6-21.3-21.3v-177.2c0-11.8 9.6-21.3 21.3-21.3h76.6c11.8 0 21.3 9.6 21.3 21.3v177.2c-0 11.8-9.5 21.3-21.3 21.3z" fill="#d3d5e7"/><path d="m409.5 472.3h-76.6c-11.8 0-21.3-9.6-21.3-21.3v-177.2c0-11.8 9.6-21.3 21.3-21.3h76.6c11.8 0 21.3 9.6 21.3 21.3v177.2c0 11.8-9.5 21.3-21.3 21.3z" fill="#fff" stroke="#1e247e" stroke-linecap="round" stroke-miterlimit="10" stroke-width="6"/><path d="m367 264.1h7.7" fill="#fff" stroke="#1e247e" stroke-linecap="round" stroke-miterlimit="10" stroke-width="3"/><circle cx="372.3" cy="457.2" fill="#d3d5e7" r="5.5" stroke="#1e247e" stroke-linecap="round" stroke-miterlimit="10" stroke-width="3"/><path d="m324.1 271.7h94.2v173.9h-94.2z" fill="#79caa1"/><path d="m379.1 354.6h-38.8c-.8 0-1.5-.7-1.5-1.5v-22.5c0-.8.7-1.5 1.5-1.5h38.8c.8 0 1.5.7 1.5 1.5v22.5c-.1.8-.7 1.5-1.5 1.5z" fill="#fff" opacity=".7"/><path d="m379.1 322.7h-38.8c-.8 0-1.5-.7-1.5-1.5v-22.5c0-.8.7-1.5 1.5-1.5h38.8c.8 0 1.5.7 1.5 1.5v22.5c-.1.8-.7 1.5-1.5 1.5z" fill="#fff" opacity=".7"/><path d="m348.3 404.7 7.9 6.1" fill="#69adf7" stroke="#1e247e" stroke-linecap="round" stroke-miterlimit="10" stroke-width="2.5"/><path d="m348.3 397.1 15.9 12.2" fill="#69adf7" stroke="#1e247e" stroke-linecap="round" stroke-miterlimit="10" stroke-width="2.5"/><path d="m359.8 398.2 4.4 3.3" fill="#69adf7" stroke="#1e247e" stroke-linecap="round" stroke-miterlimit="10" stroke-width="2.5"/><path d="m274.2 460.7h-158.9c-16.3 0-29.7-13.4-29.7-29.7v-286.8c0-16.3 13.4-29.7 29.7-29.7h158.9c16.3 0 29.7 13.4 29.7 29.7v286.8c0 16.4-13.4 29.7-29.7 29.7z" fill="#d3d5e7"/><path d="m259.2 472.3h-158.9c-16.3 0-29.7-13.4-29.7-29.7v-286.8c0-16.3 13.4-29.7 29.7-29.7h158.9c16.3 0 29.7 13.4 29.7 29.7v286.8c0 16.4-13.4 29.7-29.7 29.7z" fill="#fff" stroke="#1e247e" stroke-linecap="round" stroke-miterlimit="10" stroke-width="6"/><path d="m167 144.3h25.5" fill="none" stroke="#1e247e" stroke-linecap="round" stroke-miterlimit="10" stroke-width="3"/><circle cx="179.7" cy="448.7" fill="#d3d5e7" r="10.2" stroke="#1e247e" stroke-linecap="round" stroke-miterlimit="10" stroke-width="3"/><path d="m267.5 139.8c4.8 1 8.6 5.2 9 10.2" fill="none" stroke="#1e247e" stroke-linecap="round" stroke-miterlimit="10" stroke-width="2.7"/><path d="m90.4 157.9h178.8v269h-178.8z" fill="#69aef8"/><path d="m241.1 403.8h-79.3c-2.3 0-4.2-1.9-4.2-4.2v-117.5c0-2.3 1.9-4.2 4.2-4.2h79.3c2.3 0 4.2 1.9 4.2 4.2v117.6c0 2.3-1.9 4.1-4.2 4.1z" fill="#fff" opacity=".7"/><path d="m148.7 403.8h-38.3c-1.6 0-2.9-1.3-2.9-2.9v-120c0-1.6 1.3-2.9 2.9-2.9h38.3c1.6 0 2.9 1.3 2.9 2.9v120c.1 1.6-1.2 2.9-2.9 2.9z" fill="#fff" opacity=".7"/><path d="m198.6 261.6h-88.2c-1.6 0-2.9-1.3-2.9-2.9v-51.6c0-1.6 1.3-2.9 2.9-2.9h88.2c1.6 0 2.9 1.3 2.9 2.9v51.6c0 1.6-1.3 2.9-2.9 2.9z" fill="#fff" opacity=".7"/><path d="m137.1 233.8 8.9 6.9" fill="#69adf7" stroke="#1e247e" stroke-linecap="round" stroke-miterlimit="10" stroke-width="2.5"/><path d="m137.1 225.2 17.9 13.7" fill="#69adf7" stroke="#1e247e" stroke-linecap="round" stroke-miterlimit="10" stroke-width="2.5"/><path d="m150 226.4 5 3.8" fill="#69adf7" stroke="#1e247e" stroke-linecap="round" stroke-miterlimit="10" stroke-width="2.5"/></svg>